<svg width="589" height="591" viewBox="0 0 589 591" fill="none" xmlns="http://www.w3.org/2000/svg">
<path d="M294.114 590.754C456.549 590.754 588.228 464.406 588.228 308.548C588.228 152.69 456.549 26.3424 294.114 26.3424C131.679 26.3424 0 152.69 0 308.548C0 464.406 131.679 590.754 294.114 590.754Z" fill="#2B2B2B"/>
<path d="M386.677 408.774C386.677 435.455 364.727 453.164 338.329 457.111C304.378 462.189 287.534 441.586 289.982 408.774C292.403 376.435 303.325 356.859 338.329 360.437C364.885 363.147 386.677 382.066 386.677 408.774Z" fill="#FFE7E6"/>
<path d="M8.00121 22.7901L17.1076 236.977L172.389 52.7868L37.61 1.45039C22.924 -4.12794 7.31692 7.10766 8.00121 22.7901Z" fill="#2B2B2B"/>
<path d="M201.972 408.774C201.972 435.455 223.922 453.164 250.32 457.111C284.271 462.189 301.115 441.586 298.667 408.774C296.246 376.435 285.324 356.859 250.32 360.437C223.764 363.147 201.972 382.066 201.972 408.774Z" fill="#FFE7E6"/>
<path d="M580.227 22.7901L571.121 236.977L415.839 52.7868L550.618 1.45039C565.304 -4.12794 580.911 7.10766 580.227 22.7901Z" fill="#2B2B2B"/>
<path d="M286.797 391.855L266.9 372.883C256.241 362.7 263.426 344.728 278.191 344.728H317.985C332.724 344.728 339.935 362.7 329.276 372.883L309.379 391.855C303.063 397.88 293.14 397.88 286.824 391.855H286.797Z" fill="#FFAEA6"/>
<path d="M201.34 339.466C224.597 339.466 243.45 314.726 243.45 284.209C243.45 253.691 224.597 228.952 201.34 228.952C178.083 228.952 159.229 253.691 159.229 284.209C159.229 314.726 178.083 339.466 201.34 339.466Z" fill="url(#paint0_linear_245_333)"/>
<path d="M203.972 339.939C225.775 339.939 243.45 318.039 243.45 291.024C243.45 264.008 225.775 242.108 203.972 242.108C182.168 242.108 164.493 264.008 164.493 291.024C164.493 318.039 182.168 339.939 203.972 339.939Z" fill="url(#paint1_linear_245_333)"/>
<path d="M186.865 284.209C189.045 284.209 190.813 281.264 190.813 277.63C190.813 273.997 189.045 271.052 186.865 271.052C184.684 271.052 182.917 273.997 182.917 277.63C182.917 281.264 184.684 284.209 186.865 284.209Z" fill="#FFFDFD"/>
<path d="M393.468 339.466C416.725 339.466 435.578 314.726 435.578 284.209C435.578 253.691 416.725 228.952 393.468 228.952C370.211 228.952 351.357 253.691 351.357 284.209C351.357 314.726 370.211 339.466 393.468 339.466Z" fill="url(#paint2_linear_245_333)"/>
<path d="M396.099 339.939C417.903 339.939 435.578 318.039 435.578 291.024C435.578 264.008 417.903 242.108 396.099 242.108C374.296 242.108 356.621 264.008 356.621 291.024C356.621 318.039 374.296 339.939 396.099 339.939Z" fill="url(#paint3_linear_245_333)"/>
<path d="M378.993 284.209C381.173 284.209 382.941 281.264 382.941 277.63C382.941 273.997 381.173 271.052 378.993 271.052C376.812 271.052 375.045 273.997 375.045 277.63C375.045 281.264 376.812 284.209 378.993 284.209Z" fill="#FFFDFD"/>
<defs>
<linearGradient id="paint0_linear_245_333" x1="159.229" y1="284.209" x2="243.45" y2="284.209" gradientUnits="userSpaceOnUse">
<stop stop-color="white"/>
<stop offset="1" stop-color="#CBCBCB"/>
</linearGradient>
<linearGradient id="paint1_linear_245_333" x1="180.6" y1="250.528" x2="227.353" y2="331.502" gradientUnits="userSpaceOnUse">
<stop stop-color="#CBDFF3"/>
<stop offset="0.05" stop-color="#B8D7EF"/>
<stop offset="0.23" stop-color="#76BDE4"/>
<stop offset="0.38" stop-color="#46AADC"/>
<stop offset="0.5" stop-color="#299FD7"/>
<stop offset="0.57" stop-color="#1E9BD6"/>
<stop offset="0.98" stop-color="#0075BD"/>
</linearGradient>
<linearGradient id="paint2_linear_245_333" x1="351.357" y1="-10.5483" x2="435.578" y2="-10.5483" gradientUnits="userSpaceOnUse">
<stop stop-color="white"/>
<stop offset="1" stop-color="#CBCBCB"/>
</linearGradient>
<linearGradient id="paint3_linear_245_333" x1="372.728" y1="250.528" x2="419.481" y2="331.502" gradientUnits="userSpaceOnUse">
<stop stop-color="#CBDFF3"/>
<stop offset="0.05" stop-color="#B8D7EF"/>
<stop offset="0.23" stop-color="#76BDE4"/>
<stop offset="0.38" stop-color="#46AADC"/>
<stop offset="0.5" stop-color="#299FD7"/>
<stop offset="0.57" stop-color="#1E9BD6"/>
<stop offset="0.98" stop-color="#0075BD"/>
</linearGradient>
</defs>
</svg>
