<svg width="589" height="591" viewBox="0 0 589 591" fill="none" xmlns="http://www.w3.org/2000/svg">
<path d="M294.114 590.78C456.549 590.78 588.228 464.432 588.228 308.574C588.228 152.717 456.549 26.3687 294.114 26.3687C131.679 26.3687 0 152.717 0 308.574C0 464.432 131.679 590.78 294.114 590.78Z" fill="#F2F2F2"/>
<path d="M386.677 408.8C386.677 435.481 364.727 453.19 338.329 457.137C304.378 462.215 287.534 441.612 289.982 408.8C292.403 376.462 303.325 356.885 338.329 360.463C364.885 363.174 386.677 382.093 386.677 408.8Z" fill="#E4E4E4"/>
<path d="M8.00121 22.8165L17.1075 237.003L172.389 52.8132L37.61 1.45039C22.924 -4.12794 7.31692 7.10766 8.00121 22.7901V22.8165Z" fill="#F2F2F2"/>
<path d="M201.972 408.8C201.972 435.481 223.922 453.19 250.32 457.137C284.271 462.215 301.115 441.612 298.667 408.8C296.246 376.462 285.324 356.885 250.32 360.463C223.764 363.174 201.972 382.093 201.972 408.8Z" fill="#E4E4E4"/>
<path d="M580.227 22.8165L571.121 237.003L415.839 52.8132L550.618 1.45039C565.304 -4.12794 580.911 7.10766 580.227 22.7901V22.8165Z" fill="#F2F2F2"/>
<path d="M286.797 391.881L266.9 372.909C256.241 362.726 263.426 344.755 278.191 344.755H317.985C332.724 344.755 339.935 362.726 329.276 372.909L309.379 391.881C303.063 397.907 293.14 397.907 286.824 391.881H286.797Z" fill="#FFAEA6"/>
<path d="M201.34 339.492C224.597 339.492 243.45 314.753 243.45 284.235C243.45 253.717 224.597 228.978 201.34 228.978C178.083 228.978 159.229 253.717 159.229 284.235C159.229 314.753 178.083 339.492 201.34 339.492Z" fill="url(#paint0_linear_245_346)"/>
<path d="M203.972 339.966C225.775 339.966 243.45 318.065 243.45 291.05C243.45 264.035 225.775 242.134 203.972 242.134C182.168 242.134 164.493 264.035 164.493 291.05C164.493 318.065 182.168 339.966 203.972 339.966Z" fill="url(#paint1_linear_245_346)"/>
<path d="M186.865 284.235C189.045 284.235 190.813 281.29 190.813 277.657C190.813 274.024 189.045 271.079 186.865 271.079C184.684 271.079 182.917 274.024 182.917 277.657C182.917 281.29 184.684 284.235 186.865 284.235Z" fill="#FFFDFD"/>
<path d="M393.468 339.492C416.725 339.492 435.578 314.753 435.578 284.235C435.578 253.717 416.725 228.978 393.468 228.978C370.211 228.978 351.357 253.717 351.357 284.235C351.357 314.753 370.211 339.492 393.468 339.492Z" fill="url(#paint2_linear_245_346)"/>
<path d="M396.099 339.966C417.903 339.966 435.578 318.065 435.578 291.05C435.578 264.035 417.903 242.134 396.099 242.134C374.296 242.134 356.621 264.035 356.621 291.05C356.621 318.065 374.296 339.966 396.099 339.966Z" fill="url(#paint3_linear_245_346)"/>
<path d="M378.993 284.235C381.173 284.235 382.941 281.29 382.941 277.657C382.941 274.024 381.173 271.079 378.993 271.079C376.812 271.079 375.045 274.024 375.045 277.657C375.045 281.29 376.812 284.235 378.993 284.235Z" fill="#FFFDFD"/>
<defs>
<linearGradient id="paint0_linear_245_346" x1="159.229" y1="284.235" x2="243.45" y2="284.235" gradientUnits="userSpaceOnUse">
<stop stop-color="white"/>
<stop offset="1" stop-color="#CBCBCB"/>
</linearGradient>
<linearGradient id="paint1_linear_245_346" x1="180.6" y1="250.555" x2="227.353" y2="331.529" gradientUnits="userSpaceOnUse">
<stop stop-color="#CBDFF3"/>
<stop offset="0.05" stop-color="#B8D7EF"/>
<stop offset="0.23" stop-color="#76BDE4"/>
<stop offset="0.38" stop-color="#46AADC"/>
<stop offset="0.5" stop-color="#299FD7"/>
<stop offset="0.57" stop-color="#1E9BD6"/>
<stop offset="0.98" stop-color="#0075BD"/>
</linearGradient>
<linearGradient id="paint2_linear_245_346" x1="351.357" y1="284.235" x2="435.578" y2="284.235" gradientUnits="userSpaceOnUse">
<stop stop-color="white"/>
<stop offset="1" stop-color="#CBCBCB"/>
</linearGradient>
<linearGradient id="paint3_linear_245_346" x1="372.728" y1="250.555" x2="419.481" y2="331.529" gradientUnits="userSpaceOnUse">
<stop stop-color="#CBDFF3"/>
<stop offset="0.05" stop-color="#B8D7EF"/>
<stop offset="0.23" stop-color="#76BDE4"/>
<stop offset="0.38" stop-color="#46AADC"/>
<stop offset="0.5" stop-color="#299FD7"/>
<stop offset="0.57" stop-color="#1E9BD6"/>
<stop offset="0.98" stop-color="#0075BD"/>
</linearGradient>
</defs>
</svg>
